<svg width="267" height="88" viewBox="0 0 267 88" fill="none" xmlns="http://www.w3.org/2000/svg">
<path d="M32.8416 0H35.2129C43.4453 0.178966 51.5435 3.48984 57.3599 9.35097C55.2123 11.5433 53.02 13.6462 50.9171 15.8385C47.651 12.8855 43.7137 10.6037 39.4186 9.79838C33.0653 8.45614 26.2198 9.66416 20.8956 13.2882C15.0792 17.0912 11.1419 23.534 10.2918 30.4242C9.35227 37.2249 11.2762 44.3835 15.7056 49.663C19.956 54.8083 26.4435 58.0297 33.1547 58.2534C39.4186 58.6113 45.9508 56.6875 50.5144 52.3028C54.0938 49.2156 55.7492 44.5178 56.2861 39.9541C48.859 39.9541 41.4319 39.9989 34.0048 39.9541V30.7374H65.2791C66.8898 40.6253 64.5633 51.7659 57.0467 58.835C52.0357 63.8461 45.1007 66.799 38.0316 67.3807C31.1861 68.0518 24.117 66.7543 18.0321 63.4434C10.7393 59.5509 4.92287 52.9739 2.05941 45.2336C-0.625079 38.1197 -0.66982 30.0663 1.8357 22.9076C4.11752 16.3754 8.50219 10.6037 14.1396 6.577C19.5533 2.59501 26.1303 0.402673 32.8416 0Z" fill="white"/>
<path d="M212.255 2.32654H221.83V66.2174C218.653 66.2174 215.432 66.2621 212.255 66.1726C212.3 44.9204 212.255 23.6235 212.255 2.32654Z" fill="white"/>
<path d="M86.5759 24.4736C92.4818 23.355 98.8798 24.6078 103.757 28.1424C108.186 31.2743 111.273 36.1958 112.213 41.5648C113.421 47.7839 111.9 54.5846 107.873 59.5061C103.533 65.0093 96.419 67.9623 89.4841 67.5149C83.1308 67.1569 76.9565 63.9803 73.1982 58.7903C68.9477 53.0634 67.9187 45.1889 70.2452 38.4776C72.5718 31.2743 79.1488 25.7711 86.5759 24.4736ZM87.9181 32.9744C85.5021 33.6008 83.265 34.9878 81.6543 36.9564C77.3144 42.1464 77.5829 50.6026 82.3702 55.4347C85.0994 58.2086 89.2156 59.5061 93.0187 58.7455C96.5532 58.1191 99.6404 55.7478 101.341 52.6159C104.294 47.2917 103.443 39.9541 98.9245 35.7931C96.0163 33.1087 91.7659 31.9901 87.9181 32.9744Z" fill="white"/>
<path d="M134.002 24.4737C140.758 23.1762 148.14 25.0553 153.196 29.7979C161.429 37.1803 162.323 51.0054 155.299 59.5063C151.049 64.8752 144.158 67.8282 137.358 67.515C130.87 67.336 124.472 64.1146 120.624 58.7904C116.284 52.9293 115.345 44.8758 117.806 38.0303C120.266 31.0507 126.709 25.7264 134.002 24.4737ZM135.344 32.9746C132.928 33.6009 130.691 34.9879 129.08 36.9118C124.785 42.0123 124.964 50.3343 129.573 55.2111C132.302 58.1193 136.552 59.551 140.49 58.7457C143.979 58.0745 147.111 55.748 148.811 52.6161C151.72 47.2471 150.87 39.9095 146.306 35.7485C143.398 33.064 139.147 31.9902 135.344 32.9746Z" fill="white"/>
<path d="M174.225 27.0686C179.37 23.8472 186.215 22.9524 191.763 25.7264C193.508 26.487 194.94 27.7845 196.327 29.082C196.372 27.874 196.327 26.6212 196.372 25.3684C199.369 25.4132 202.367 25.3684 205.409 25.4132V64.8752C205.365 70.8258 203.844 77.1343 199.548 81.4743C194.85 86.2616 187.647 87.7381 181.16 86.7537C174.225 85.7247 168.185 80.6689 165.5 74.2709C168.185 72.9734 171.003 71.9443 173.777 70.7363C175.343 74.4051 178.52 77.537 182.502 78.2529C186.484 78.9687 191.092 77.9844 193.687 74.6735C196.461 71.2732 196.461 66.6201 196.327 62.4591C194.269 64.4725 191.898 66.2622 189.034 66.9333C182.815 68.6782 175.97 66.5306 171.182 62.3249C166.35 58.1192 163.487 51.6317 163.755 45.1889C163.889 37.896 168.006 30.8716 174.225 27.0686ZM183.486 32.7955C180.757 33.2429 178.207 34.7641 176.462 36.867C172.256 41.878 172.256 49.8868 176.506 54.8083C178.923 57.7165 182.815 59.3272 186.573 58.9245C190.108 58.5666 193.374 56.3295 195.119 53.2424C198.072 48.0076 197.58 40.8937 193.598 36.3301C191.137 33.5114 187.2 32.1244 183.486 32.7955Z" fill="white"/>
<path d="M233.328 29.3504C238.697 24.3393 246.974 22.6392 253.865 25.2789C260.397 27.7397 264.558 33.9588 266.661 40.3568C256.952 44.3835 247.288 48.3655 237.579 52.3923C238.921 54.9425 240.979 57.2691 243.753 58.2087C247.645 59.5956 252.299 59.1035 255.565 56.5085C256.862 55.5242 257.891 54.2267 258.876 52.9739C261.336 54.6293 263.797 56.24 266.258 57.8955C262.768 63.1302 256.907 66.799 250.598 67.3807C243.619 68.2308 236.192 65.5463 231.673 60.0878C224.246 51.4974 224.962 37.0907 233.328 29.3504ZM238.116 37.6276C236.594 39.8199 235.968 42.5044 236.013 45.1441C242.5 42.4597 248.988 39.7752 255.475 37.0459C254.401 34.5404 251.806 33.0192 249.167 32.6165C244.916 31.8559 240.487 34.1377 238.116 37.6276Z" fill="white"/>
</svg>
