<svg width="319" height="94" viewBox="0 0 319 94" fill="none" xmlns="http://www.w3.org/2000/svg">
<path d="M29.9457 66.8607L30.2539 67.7306C30.205 67.6311 30.0923 67.3267 29.9457 66.8607ZM15.6352 60.6731C16.1764 56 18.014 53.3825 21.477 50.6993C26.432 47.0653 32.6214 49.121 32.6214 49.121V36.9243C34.1262 36.8857 35.6314 36.9794 37.1198 37.2043V52.8959C37.1198 52.8959 30.9322 50.8402 25.9773 54.4742C22.5161 57.1575 20.6747 59.7768 20.1354 64.4499C20.1185 66.9903 20.5751 70.3086 22.6777 73.1779C22.1579 72.8998 21.628 72.5829 21.0881 72.2271C16.4563 68.9821 15.6127 64.1154 15.6352 60.6731ZM62.6761 14.3762C59.2676 10.4792 57.9786 6.54454 57.5126 3.78052H61.8005C61.8005 3.78052 60.9456 11.0278 67.1764 18.1549L67.2628 18.2507C65.5835 17.1486 64.0435 15.8477 62.6761 14.3762Z" fill="#818181"/>
<path d="M83.332 25.4266V40.8025C83.332 40.8025 77.8603 40.5808 73.8111 39.5041C68.1571 38.0009 64.5231 35.6973 64.5231 35.6973C64.5231 35.6973 62.0128 34.0513 61.8098 33.9385V65.7031C61.8098 67.4694 61.3457 71.8851 59.9308 75.5698C58.0838 80.3876 55.2333 83.5499 54.7091 84.1944C54.7091 84.1944 51.2423 88.4711 45.1261 91.3497C39.6131 93.9465 34.7728 93.8807 33.326 93.9465C33.326 93.9465 24.9588 94.2922 17.4296 89.1851C15.8008 88.0614 14.2809 86.7875 12.8899 85.3801L12.9275 85.4064C20.4585 90.5135 28.8239 90.1678 28.8239 90.1678C30.2726 90.102 35.1129 90.1678 40.624 87.571C46.7364 84.6924 50.207 80.4158 50.207 80.4158C50.7256 79.7713 53.5892 76.6089 55.4287 71.7892C56.8399 68.1064 57.3077 63.6907 57.3077 61.9226V30.1598C57.5107 30.2745 60.021 31.9205 60.021 31.9205C60.021 31.9205 63.655 34.2279 69.309 35.7273C73.3601 36.8021 78.8299 37.0257 78.8299 37.0257V24.9775C80.7014 25.4153 82.2967 25.5356 83.332 25.4266Z" fill="#818181"/>
<path d="M78.8318 24.9777V37.024C78.8318 37.024 73.362 36.8004 69.3109 35.7256C63.6569 34.2224 60.0229 31.9187 60.0229 31.9187C60.0229 31.9187 57.5126 30.2727 57.3096 30.1581V61.9152C57.3096 63.6833 56.8455 68.099 55.4306 71.7819C53.5836 76.6015 50.7331 79.7639 50.2089 80.4084C50.2089 80.4084 46.7421 84.685 40.6259 87.5636C35.1148 90.1604 30.2745 90.0947 28.8258 90.1604C28.8258 90.1604 20.4604 90.5062 12.9294 85.399L12.8918 85.3727C12.0971 84.569 11.3487 83.7208 10.6501 82.8323C8.24688 79.7733 6.77374 76.1599 6.40357 75.1284C6.40246 75.1241 6.40246 75.1195 6.40357 75.1152C5.80605 73.3208 4.55463 69.0178 4.72562 64.8483C5.02814 57.4901 7.50843 52.9768 8.1642 51.8437C9.90175 48.7596 12.1613 46.0004 14.8422 43.6888C17.2066 41.6922 19.8879 40.1045 22.7754 38.9913C24.5758 38.2431 26.452 37.6918 28.371 37.3472C29.7747 37.0962 31.1958 36.9549 32.6214 36.9244V49.1135C32.6214 49.1135 26.4319 47.0579 21.477 50.6919C18.014 53.3751 16.1763 55.9926 15.6351 60.6657C15.6126 64.108 16.4563 68.9746 21.0843 72.2234C21.6229 72.5804 22.1528 72.8974 22.6739 73.1742C23.483 74.2669 24.4663 75.2191 25.5845 75.9927C30.1054 78.9785 33.8934 79.187 38.7375 77.2479C41.9713 75.9683 44.3933 73.0464 45.5414 69.807C46.2498 67.7852 46.2404 65.7484 46.2404 63.6458V3.78247H57.5144C57.9804 6.54649 59.2694 10.4811 62.678 14.3782C64.0453 15.8496 65.5853 17.1506 67.2646 18.2527C67.7607 18.7882 70.2973 21.4339 73.5537 23.0611C75.2335 23.9007 77.0046 24.5438 78.8318 24.9777Z" fill="white"/>
<path d="M22.7755 38.9914C19.888 40.1046 17.2067 41.6923 14.8423 43.6889C12.1612 46.0058 9.90286 48.7709 8.16805 51.8607C7.51228 52.9881 5.03199 57.5071 4.72947 64.8653C4.55848 69.0348 5.8099 73.3377 6.40742 75.1322C6.40631 75.1365 6.40631 75.141 6.40742 75.1453C6.78322 76.1675 8.25073 79.7808 10.654 82.8493C11.3525 83.7378 12.101 84.586 12.8956 85.3897C10.3481 83.6278 8.07603 81.4976 6.15376 79.0687C3.77118 76.0379 2.30179 72.4602 1.91848 71.4042L1.90908 71.3817V71.3667C1.31156 69.5778 0.0563799 65.2712 0.231128 61.096C0.533648 53.7378 3.01394 49.2244 3.66971 48.0914C5.40401 45.0012 7.66238 42.2361 10.3439 39.9196C12.7078 37.9223 15.3892 36.3345 18.2771 35.2221C20.0776 34.4739 21.9537 33.9226 23.8728 33.5779C26.7644 33.0722 29.718 33.0284 32.6233 33.4483V36.9245C31.1981 36.9506 29.777 37.0876 28.373 37.3341C26.4528 37.6829 24.576 38.2385 22.7755 38.9914Z" fill="#D0D0D0"/>
<path d="M57.5125 3.78244H46.2385V63.6495C46.2385 65.7521 46.2479 67.7833 45.5395 69.8108C44.4008 73.0464 41.9788 75.9683 38.7506 77.2648C33.9047 79.2114 30.1166 78.9953 25.5976 76.0096C24.4795 75.236 23.4961 74.2838 22.687 73.1911C26.5371 75.2448 29.9832 75.2091 34.2523 73.4955C37.4616 72.1896 39.9044 69.2677 41.0318 66.0302C41.742 64.0084 41.7326 61.9715 41.7326 59.8708V0H57.3002C57.3002 0 57.1236 1.49005 57.5125 3.78244ZM78.8317 21.648V24.9776C77.0039 24.5439 75.2322 23.9008 73.5517 23.0611C70.2954 21.4338 67.7588 18.7882 67.2627 18.2527C67.8379 18.6307 68.4353 18.9739 69.0515 19.2805C73.0106 21.2572 76.9001 21.8491 78.8317 21.648Z" fill="#D0D0D0"/>
<path d="M245.415 52.8677C245.415 53.7241 245.541 54.5758 245.791 55.395C245.805 55.453 245.823 55.5101 245.844 55.566C246.445 57.5038 247.651 59.1984 249.284 60.4017C250.918 61.605 252.894 62.2538 254.923 62.2534V71.8739C250.242 71.8739 246.888 72.0373 241.787 69.0197C235.962 65.5773 232.689 59.2826 232.689 52.7456C232.689 46.0075 236.349 39.2524 242.555 35.9999C247.054 33.6398 250.477 33.6229 254.923 33.6229V43.2378C252.402 43.2383 249.983 44.2402 248.201 46.0231C246.418 47.8061 245.416 50.2241 245.415 52.7456V52.8677Z" fill="#D0D0D0"/>
<path d="M264.504 52.8677C264.505 53.7242 264.379 54.576 264.128 55.395C264.115 55.4532 264.097 55.5104 264.075 55.566C263.475 57.5041 262.269 59.199 260.635 60.4024C259.001 61.6058 257.025 62.2544 254.996 62.2534V71.8739C259.679 71.8739 263.031 72.0373 268.132 69.0197C273.957 65.5773 277.232 59.2826 277.232 52.7456C277.232 46.0075 273.57 39.2524 267.366 35.9999C262.867 33.6398 259.442 33.6229 254.996 33.6229V43.2378C257.518 43.2378 259.936 44.2395 261.72 46.0225C263.503 47.8055 264.505 50.2238 264.506 52.7456L264.504 52.8677Z" fill="#818181"/>
<path d="M107.748 24.8987H142.962L139.708 34.5887H130.501V71.669H119.157V34.5887H107.748V24.8987ZM201.078 24.8987V34.5887H212.487V71.669H223.823V34.5887H233.031L236.293 24.8987H201.078ZM150.623 35.9416C151.708 35.9416 152.768 35.6199 153.67 35.0172C154.572 34.4146 155.275 33.558 155.69 32.5557C156.105 31.5535 156.214 30.4507 156.002 29.3867C155.791 28.3228 155.268 27.3455 154.501 26.5784C153.734 25.8114 152.757 25.289 151.693 25.0774C150.629 24.8657 149.526 24.9743 148.524 25.3895C147.522 25.8046 146.665 26.5076 146.063 27.4096C145.46 28.3116 145.138 29.372 145.138 30.4568C145.138 31.9114 145.716 33.3065 146.745 34.3351C147.773 35.3637 149.168 35.9416 150.623 35.9416ZM145.129 71.669H156.247V39.818H145.129V71.669ZM196.238 35.6673H183.239L172.034 46.8831V24.9344H160.991L160.954 71.669H172.108V59.4912L175.582 56.3476L186.405 71.669H198.327L182.649 49.2619L196.238 35.6673ZM302.879 49.2619L316.474 35.6673H303.475L292.27 46.8831V24.9344H281.225L281.19 71.669H292.343V59.4912L295.825 56.3476L306.65 71.669H318.561L302.879 49.2619ZM274.299 52.7456C274.299 63.3075 265.622 71.8701 254.917 71.8701C244.213 71.8701 235.537 63.3075 235.537 52.7456C235.537 42.1837 244.214 33.621 254.917 33.621C265.62 33.621 274.303 42.1855 274.303 52.7456H274.299ZM264.425 52.7456C264.425 50.8651 263.867 49.0269 262.823 47.4633C261.778 45.8998 260.293 44.6811 258.556 43.9615C256.818 43.2419 254.907 43.0536 253.062 43.4205C251.218 43.7873 249.524 44.6929 248.194 46.0226C246.865 47.3522 245.959 49.0464 245.592 50.8907C245.225 52.735 245.414 54.6467 246.133 56.384C246.853 58.1213 248.071 59.6063 249.635 60.651C251.199 61.6957 253.037 62.2533 254.917 62.2533C256.166 62.2541 257.403 62.0087 258.557 61.5312C259.711 61.0537 260.76 60.3534 261.643 59.4705C262.527 58.5875 263.227 57.5391 263.705 56.3852C264.183 55.2313 264.429 53.9945 264.429 52.7456H264.425Z" fill="white"/>
</svg>
