<svg width="1518" height="1331" viewBox="0 0 1518 1331" fill="none" xmlns="http://www.w3.org/2000/svg">
<g style="mix-blend-mode:difference" opacity="0.7">
<path d="M1231 666C1231 849.451 1178.11 1015.49 1092.65 1135.65C1007.18 1255.8 889.207 1330 759 1330C628.793 1330 510.817 1255.8 425.353 1135.65C339.891 1015.49 287 849.451 287 666C287 482.549 339.891 316.507 425.353 196.354C510.817 76.1982 628.793 2 759 2C889.207 2 1007.18 76.1982 1092.65 196.354C1178.11 316.507 1231 482.549 1231 666Z" stroke="#D9D9D9" stroke-opacity="0.4" stroke-width="2"/>
<path d="M1134 666C1134 849.495 1091.94 1015.57 1024 1135.73C956.041 1255.93 862.31 1330 759 1330C655.69 1330 561.959 1255.93 493.998 1135.73C426.055 1015.57 384 849.495 384 666C384 482.505 426.055 316.431 493.998 196.266C561.959 76.0706 655.69 2 759 2C862.31 2 956.041 76.0706 1024 196.266C1091.94 316.431 1134 482.505 1134 666Z" stroke="#D9D9D9" stroke-opacity="0.2" stroke-width="2"/>
<path d="M1045 666C1045 849.532 1012.89 1015.64 961.022 1135.83C935.085 1195.93 904.228 1244.5 870.013 1278.03C835.804 1311.55 798.291 1330 759 1330C719.709 1330 682.196 1311.55 647.987 1278.03C613.772 1244.5 582.915 1195.93 556.978 1135.83C505.108 1015.64 473 849.532 473 666C473 482.468 505.108 316.359 556.978 196.17C582.915 136.074 613.772 87.5045 647.987 53.9732C682.196 20.4463 719.709 2 759 2C798.291 2 835.804 20.4463 870.013 53.9732C904.228 87.5045 935.085 136.074 961.022 196.17C1012.89 316.359 1045 482.468 1045 666Z" stroke="#D9D9D9" stroke-opacity="0.1" stroke-width="2"/>
<path d="M1369 666C1369 1032.8 1095.82 1330 759 1330C422.184 1330 149 1032.8 149 666C149 299.202 422.184 2 759 2C1095.82 2 1369 299.202 1369 666Z" stroke="#D9D9D9" stroke-opacity="0.5" stroke-width="2"/>
<path d="M1449 665.5C1449 1032.46 1140.11 1330 759 1330C377.888 1330 69 1032.46 69 665.5C69 298.542 377.888 1 759 1C1140.11 1 1449 298.542 1449 665.5Z" stroke="#D9D9D9" stroke-opacity="0.6" stroke-width="2"/>
<path d="M1517 666C1517 1032.6 1177.76 1330 759 1330C340.24 1330 1 1032.6 1 666C1 299.403 340.24 2 759 2C1177.76 2 1517 299.403 1517 666Z" stroke="#D9D9D9" stroke-opacity="0.5" stroke-width="2"/>
</g>
</svg>
